<?xml version="1.0" standalone="no"?>
<!DOCTYPE svg PUBLIC "-//W3C//DTD SVG 20010904//EN"
 "http://www.w3.org/TR/2001/REC-SVG-20010904/DTD/svg10.dtd">
<svg version="1.0" xmlns="http://www.w3.org/2000/svg"
 width="512.000000pt" height="512.000000pt" viewBox="0 0 512.000000 512.000000"
 preserveAspectRatio="xMidYMid meet">

<g transform="translate(0.000000,512.000000) scale(0.100000,-0.100000)"
fill="#000000" stroke="none">
<path d="M1348 4010 c-125 -21 -261 -78 -365 -151 -88 -63 -510 -454 -539
-501 -14 -22 -32 -69 -41 -104 -24 -97 -11 -144 106 -396 56 -119 101 -221
101 -226 0 -5 -26 -12 -57 -16 -95 -11 -201 -44 -318 -100 -130 -62 -161 -87
-200 -158 -26 -46 -30 -63 -30 -128 1 -92 22 -138 106 -225 l58 -61 -14 -54
c-20 -73 -19 -236 1 -313 58 -224 235 -400 461 -458 249 -63 519 36 669 247
l46 64 1092 0 1092 0 32 -45 c36 -52 70 -69 106 -55 53 20 59 73 16 141 -121
187 -99 429 52 592 121 130 304 186 471 142 216 -56 367 -250 367 -470 0 -179
-104 -351 -262 -429 -113 -57 -180 -64 -373 -40 -42 5 -53 3 -68 -14 -23 -26
-25 -77 -3 -101 29 -32 102 -46 231 -45 103 0 130 4 193 26 101 36 172 81 245
155 74 75 132 166 155 245 l17 58 41 0 c93 0 184 51 222 126 14 27 162 781
162 826 0 46 -24 125 -46 149 -23 25 -85 26 -107 1 -20 -22 -21 -55 -6 -114
10 -39 4 -80 -61 -413 -40 -203 -76 -378 -81 -387 -13 -24 -42 -38 -78 -38
-29 0 -31 3 -31 35 0 50 -19 131 -48 204 l-25 64 28 146 c16 80 28 167 28 192
l-1 47 51 5 c39 3 56 11 74 31 23 27 23 31 23 252 0 228 -4 254 -39 281 -22
17 -235 16 -284 -1 -96 -35 -169 -119 -188 -221 -7 -33 -13 -61 -14 -62 -1 -2
-143 45 -315 102 -173 58 -331 105 -350 105 -33 0 -43 9 -175 168 -229 273
-382 417 -595 555 -188 121 -380 209 -599 272 -152 43 -261 61 -516 85 -218
21 -337 23 -417 10z m417 -160 c352 -34 552 -85 803 -205 300 -144 496 -304
768 -627 l125 -148 -33 -43 c-22 -29 -53 -101 -92 -210 -57 -163 -59 -167 -80
-154 -12 7 -115 70 -231 140 -278 166 -253 144 -219 198 49 77 27 149 -45 149
-38 0 -55 -22 -160 -196 -101 -168 -109 -198 -65 -233 51 -40 89 -24 134 58
13 22 26 41 30 41 3 0 121 -69 261 -154 302 -184 287 -156 181 -328 -23 -37
-57 -104 -76 -150 -29 -70 -38 -83 -59 -86 -25 -3 -25 -3 -29 92 -3 86 -6 98
-33 138 -35 49 -82 83 -134 98 -20 5 -110 10 -201 10 l-165 1 -157 183 -158
184 0 194 c0 224 -10 276 -66 338 -56 62 -104 80 -213 80 -138 0 -178 -30
-188 -141 l-6 -59 -223 0 -224 0 0 399 0 398 73 21 c39 12 83 23 97 25 60 10
190 6 385 -13z m-705 -475 l0 -355 -231 0 -230 0 -27 58 c-30 64 -35 129 -13
179 8 21 103 115 253 253 132 121 242 220 244 220 2 0 4 -160 4 -355z m871
-315 c43 -24 49 -57 49 -274 0 -113 4 -216 10 -230 8 -23 347 -424 381 -453
10 -8 80 -13 218 -15 199 -3 203 -3 222 -27 15 -18 19 -39 19 -92 l0 -69 -280
0 -279 0 -69 98 c-38 53 -140 200 -228 327 l-159 229 -3 258 -3 258 51 0 c28
0 60 -5 71 -10z m-269 -362 c3 -153 6 -178 25 -213 12 -22 105 -160 207 -308
102 -147 186 -269 186 -272 0 -3 -82 -5 -183 -5 l-183 0 -18 89 c-32 162 -110
305 -224 414 -68 65 -98 72 -137 32 -41 -40 -33 -67 45 -150 47 -51 82 -102
109 -158 61 -123 71 -175 71 -369 l0 -168 -85 0 -85 0 7 28 c4 15 7 72 6 127
-4 399 -374 693 -766 610 -132 -28 -270 -111 -351 -210 l-44 -55 -30 25 c-59
50 -77 125 -43 181 34 56 229 141 388 169 93 16 407 20 480 6 47 -9 96 6 107
34 33 87 -44 125 -254 125 l-107 0 -47 96 c-25 53 -49 107 -52 120 l-6 24 490
0 490 0 4 -172z m3028 22 l0 -140 -38 0 c-27 0 -45 7 -58 21 -10 12 -40 32
-66 45 -51 26 -65 53 -53 102 18 73 73 112 158 112 l57 0 0 -140z m-889 3
l150 -47 -108 -27 c-123 -30 -241 -78 -327 -133 -32 -20 -60 -35 -62 -33 -4 4
26 96 66 200 23 61 52 86 103 87 16 0 96 -21 178 -47z m653 -207 c75 -31 100
-99 80 -213 -21 -112 -17 -109 -74 -64 -99 78 -254 131 -385 131 -231 0 -462
-143 -564 -350 -54 -110 -75 -209 -68 -320 3 -47 7 -92 9 -100 2 -13 -21 -15
-155 -18 -126 -2 -158 0 -163 11 -3 8 2 58 10 113 49 327 248 593 550 734 74
35 197 73 271 83 17 2 126 5 243 6 161 1 221 -2 246 -13z m-3582 -307 c192
-41 348 -207 378 -403 44 -284 -186 -555 -472 -556 -202 0 -388 124 -459 308
-31 79 -38 227 -14 308 70 244 320 395 567 343z m2124 -476 c-2 -10 -7 -48
-11 -86 l-7 -67 -631 2 -632 3 -3 83 -3 82 646 0 c611 0 646 -1 641 -17z"/>
<path d="M663 2014 c-60 -22 -127 -86 -160 -152 -58 -118 -28 -262 73 -351 62
-54 127 -75 218 -69 39 3 86 13 104 22 53 28 112 86 140 140 22 43 27 64 27
131 0 67 -5 88 -27 131 -34 64 -105 128 -165 148 -57 20 -154 19 -210 0z m188
-157 c89 -59 89 -185 0 -244 -63 -42 -156 -26 -199 35 -48 67 -29 170 40 212
46 28 115 27 159 -3z"/>
<path d="M3990 2021 c-82 -25 -160 -99 -191 -181 -27 -71 -23 -174 9 -237 52
-101 152 -163 263 -163 77 0 118 12 176 52 143 97 166 306 49 445 -15 17 -54
46 -88 62 -51 26 -73 31 -127 30 -36 0 -77 -4 -91 -8z m156 -157 c71 -34 98
-137 56 -206 -76 -123 -272 -67 -272 77 0 108 115 177 216 129z"/>
</g>
</svg>
