<?xml version="1.0" standalone="no"?>
<!DOCTYPE svg PUBLIC "-//W3C//DTD SVG 20010904//EN"
 "http://www.w3.org/TR/2001/REC-SVG-20010904/DTD/svg10.dtd">
<svg version="1.0" xmlns="http://www.w3.org/2000/svg"
 width="512.000000pt" height="512.000000pt" viewBox="0 0 512.000000 512.000000"
 preserveAspectRatio="xMidYMid meet">

<g transform="translate(0.000000,512.000000) scale(0.100000,-0.100000)"
fill="#000000" stroke="none">
<path d="M2395 4924 c-442 -30 -875 -176 -1242 -420 -385 -256 -687 -598 -888
-1009 -92 -187 -137 -308 -185 -500 -59 -237 -75 -372 -74 -640 1 -246 12
-350 60 -562 109 -488 388 -969 756 -1304 177 -162 283 -225 449 -271 l84 -23
1205 0 1205 0 85 23 c180 49 314 136 510 332 404 403 648 889 737 1470 21 140
24 515 5 660 -18 136 -58 328 -93 450 -70 241 -202 539 -317 715 -233 358
-578 652 -966 823 -277 122 -550 200 -827 236 -120 16 -399 27 -504 20z m340
-155 c496 -37 1011 -223 1356 -490 43 -34 79 -64 79 -66 0 -5 -129 -235 -135
-241 -1 -2 -46 31 -100 73 -392 306 -1017 489 -1527 446 -263 -22 -613 -111
-658 -168 -23 -30 -24 -42 -9 -77 20 -44 55 -47 150 -14 444 154 890 153 1362
-2 257 -85 482 -207 651 -353 50 -43 54 -50 46 -73 -27 -71 -4 -129 112 -276
120 -153 221 -333 288 -516 17 -47 20 -65 11 -75 -7 -10 -61 -18 -163 -27
-164 -13 -205 -24 -234 -62 l-18 -24 -198 63 c-112 36 -205 60 -215 56 -48
-17 -68 -67 -43 -112 11 -22 19 -26 260 -102 107 -34 199 -65 203 -69 5 -4 12
-24 17 -43 l8 -36 -309 -3 c-302 -3 -309 -3 -330 -25 -27 -27 -29 -75 -4 -103
17 -19 30 -20 346 -20 180 0 330 -3 332 -7 3 -5 8 -28 12 -53 l7 -46 -344 -48
c-258 -36 -352 -53 -378 -67 -23 -13 -87 -86 -175 -199 -77 -98 -150 -183
-163 -189 -34 -16 -790 -14 -818 2 -12 7 -83 91 -158 187 -85 109 -151 183
-174 197 -30 18 -102 31 -380 70 l-343 48 6 45 c4 25 9 48 12 53 2 4 149 7
327 7 311 0 324 1 341 20 25 28 23 76 -4 103 -21 22 -28 22 -326 25 l-303 3
12 42 c10 36 17 43 51 53 22 7 175 55 339 108 531 172 713 204 1085 193 207
-6 329 -22 502 -63 80 -19 112 -22 132 -15 49 19 61 74 25 115 -25 27 -148 59
-353 91 -137 22 -471 31 -617 16 -263 -26 -403 -59 -838 -199 l-305 -98 -23
27 c-31 38 -63 46 -235 60 -81 7 -155 18 -164 24 -15 11 -15 17 7 76 64 178
195 409 309 544 77 92 102 138 104 191 2 46 4 49 87 121 47 41 135 108 196
149 62 40 114 81 118 90 20 52 -12 104 -64 104 -43 0 -196 -102 -361 -239
l-36 -31 -58 135 c-52 120 -57 137 -43 148 168 133 296 216 465 300 393 197
810 279 1248 246z m1698 -824 c101 -126 171 -233 240 -372 364 -726 393 -1514
80 -2203 -46 -102 -146 -280 -156 -280 -5 0 -68 46 -141 102 -72 56 -132 103
-134 104 -2 1 19 44 47 96 73 137 137 301 176 453 47 182 52 233 30 290 -31
81 -79 104 -267 126 l-106 12 -22 96 c-12 53 -37 160 -55 239 -21 92 -28 142
-21 142 6 0 72 7 147 14 157 16 199 32 236 87 41 63 41 109 -2 224 -77 205
-188 401 -323 569 -40 49 -72 96 -72 104 0 7 44 92 98 187 l97 174 33 -32 c19
-18 70 -77 115 -132z m-3471 -10 c36 -82 68 -158 71 -167 6 -18 -2 -31 -99
-155 -89 -114 -149 -212 -221 -358 -116 -238 -133 -325 -82 -400 41 -59 80
-73 250 -90 84 -9 154 -17 155 -18 1 -2 -106 -471 -109 -473 -1 -1 -63 -10
-137 -19 -163 -19 -206 -39 -240 -111 -28 -58 -24 -107 24 -297 40 -154 103
-317 177 -455 28 -52 49 -95 47 -96 -2 -1 -62 -48 -134 -104 -73 -56 -136
-102 -141 -102 -6 0 -33 42 -61 93 -152 274 -241 534 -289 847 -25 160 -24
519 1 678 69 441 237 829 505 1165 86 108 203 229 211 220 4 -4 37 -75 72
-158z m448 -1805 c168 -23 314 -45 326 -50 12 -4 83 -87 159 -184 105 -135
148 -183 184 -203 25 -15 47 -27 49 -28 1 -1 7 -42 14 -91 14 -106 37 -140 91
-130 54 10 69 39 62 115 -4 36 -9 74 -11 84 -5 16 13 17 275 17 l281 0 -5 -27
c-3 -16 -19 -149 -35 -298 -17 -148 -34 -273 -39 -278 -4 -4 -35 -7 -67 -5
l-59 3 -3 132 c-3 129 -3 132 -29 152 -33 26 -53 26 -86 0 -26 -20 -26 -23
-29 -152 l-3 -132 -65 0 -65 0 -8 55 c-5 30 -10 70 -13 88 -10 67 -81 95 -125
51 -20 -20 -21 -29 -16 -110 l7 -89 -26 0 c-64 0 -112 -49 -145 -148 -12 -37
-28 -79 -36 -94 l-14 -28 -180 0 c-207 0 -263 10 -374 68 -122 64 -336 285
-461 477 -119 183 -228 449 -270 659 -16 82 -16 90 -1 101 9 6 69 17 134 24
145 15 184 25 209 52 13 14 27 19 44 16 14 -3 162 -24 330 -47z m2685 30 c24
-26 64 -36 208 -51 73 -8 121 -17 128 -26 31 -37 -69 -367 -176 -579 -100
-199 -182 -311 -350 -480 -111 -111 -154 -148 -210 -176 -115 -60 -169 -69
-377 -66 l-183 3 -37 99 c-20 54 -45 107 -55 118 -24 27 -67 48 -98 48 -14 0
-25 3 -25 8 0 22 69 604 72 605 94 47 105 57 234 221 72 92 138 175 147 183
11 12 109 29 344 63 180 26 335 48 344 49 9 0 24 -8 34 -19z m-3144 -1072
c136 -176 327 -343 455 -398 112 -49 185 -60 397 -60 217 0 239 4 292 60 15
15 41 67 59 117 l31 88 375 0 375 0 31 -88 c18 -50 44 -102 59 -117 53 -56 75
-60 292 -60 212 0 285 11 397 60 128 55 319 222 455 398 35 45 66 82 68 82 2
0 64 -46 136 -102 73 -56 134 -103 136 -105 13 -9 -143 -197 -263 -316 -168
-166 -287 -244 -436 -284 -61 -17 -146 -18 -1250 -18 -1100 0 -1190 1 -1250
18 -150 40 -276 125 -457 305 -96 96 -244 272 -242 288 0 9 258 212 270 213 3
1 35 -36 70 -81z"/>
<path d="M2433 2806 c-153 -50 -270 -189 -295 -353 -35 -223 126 -436 358
-476 274 -47 529 203 486 476 -22 143 -111 266 -239 329 -60 29 -77 33 -167
35 -65 2 -116 -2 -143 -11z m242 -160 c54 -25 119 -90 140 -140 54 -130 0
-282 -125 -351 -48 -26 -65 -30 -130 -30 -112 1 -191 48 -245 147 -25 45 -29
64 -29 123 1 83 17 126 71 185 53 60 121 90 203 90 47 0 79 -7 115 -24z"/>
</g>
</svg>
