<?xml version="1.0" standalone="no"?>
<!DOCTYPE svg PUBLIC "-//W3C//DTD SVG 20010904//EN"
 "http://www.w3.org/TR/2001/REC-SVG-20010904/DTD/svg10.dtd">
<svg version="1.0" xmlns="http://www.w3.org/2000/svg"
 width="512.000000pt" height="512.000000pt" viewBox="0 0 512.000000 512.000000"
 preserveAspectRatio="xMidYMid meet">

<g transform="translate(0.000000,512.000000) scale(0.100000,-0.100000)"
fill="#000000" stroke="none">
<path d="M3020 3850 c-12 -12 -20 -33 -20 -55 0 -32 9 -43 125 -141 69 -59
125 -108 125 -110 0 -2 -87 -4 -194 -4 l-195 0 -28 43 c-96 142 -312 122 -377
-35 -48 -113 17 -252 133 -286 34 -11 38 -16 50 -64 27 -107 69 -178 163 -271
61 -60 86 -92 81 -101 -4 -7 -91 -122 -193 -255 l-184 -243 -171 4 c-166 3
-171 4 -218 31 -41 24 -107 96 -107 116 0 4 22 14 49 24 148 52 160 245 21
314 -40 21 -138 33 -930 114 -972 99 -927 98 -997 36 -53 -46 -63 -80 -63
-204 0 -127 17 -174 75 -219 34 -26 47 -29 177 -38 l141 -11 98 -235 c55 -129
101 -243 105 -252 5 -17 -8 -18 -185 -18 -263 0 -324 -15 -408 -102 -66 -68
-88 -126 -87 -228 2 -144 65 -261 183 -341 118 -79 3 -73 1426 -77 1331 -3
1555 1 1772 38 683 117 1289 513 1665 1089 68 105 79 140 55 172 -11 14 -1452
1012 -1531 1060 -39 24 -67 24 -98 0 l-24 -19 -173 144 c-148 124 -177 144
-207 144 -21 0 -42 -8 -54 -20z m-322 -348 c32 -41 1 -95 -52 -90 -60 6 -70
86 -13 107 26 10 47 4 65 -17z m1471 -497 l610 -420 -144 -3 -145 -3 -302 197
c-167 109 -316 202 -331 208 -54 21 -109 -36 -94 -97 5 -19 76 -70 329 -234
178 -115 330 -214 338 -219 8 -5 117 -11 241 -14 l227 -5 -71 -95 c-86 -115
-312 -344 -422 -427 -334 -252 -678 -399 -1095 -470 -96 -16 -222 -17 -1514
-20 -1548 -4 -1464 -7 -1538 55 -30 25 -88 107 -88 124 0 4 200 8 444 8 l445
0 27 23 c35 30 37 79 5 110 -21 22 -25 22 -468 27 l-446 5 37 33 c20 17 38 33
39 34 1 2 732 5 1624 8 l1622 5 22 22 c29 29 29 77 0 106 l-22 22 -524 3
c-289 1 -525 4 -525 7 0 3 734 970 997 1313 52 68 99 122 104 120 5 -2 283
-192 618 -423z m-881 353 c-158 -211 -292 -384 -299 -386 -5 -2 -40 27 -78 65
-69 69 -103 128 -122 211 -9 42 -8 46 26 83 19 21 35 44 35 49 0 6 84 10 231
10 l231 0 -24 -32z m-2148 -583 c459 -47 845 -88 858 -91 12 -2 22 -12 22 -21
0 -15 -71 -15 -877 -8 -483 4 -881 9 -885 12 -10 5 -11 177 -1 186 10 11 12
11 883 -78z m-206 -458 c43 -100 89 -193 102 -206 45 -47 124 -19 126 46 1 16
-28 95 -66 178 -36 82 -66 153 -66 157 0 10 338 10 618 1 135 -4 202 -10 202
-17 0 -6 13 -39 30 -74 37 -78 108 -150 185 -187 55 -27 71 -30 188 -33 106
-3 127 -7 123 -18 -3 -8 -33 -50 -67 -94 l-62 -80 -692 0 -692 0 -91 218 c-50
119 -98 234 -107 255 l-15 37 102 0 103 0 79 -183z"/>
</g>
</svg>
