<?xml version="1.0" standalone="no"?>
<!DOCTYPE svg PUBLIC "-//W3C//DTD SVG 20010904//EN"
 "http://www.w3.org/TR/2001/REC-SVG-20010904/DTD/svg10.dtd">
<svg version="1.0" xmlns="http://www.w3.org/2000/svg"
 width="512.000000pt" height="512.000000pt" viewBox="0 0 512.000000 512.000000"
 preserveAspectRatio="xMidYMid meet">

<g transform="translate(0.000000,512.000000) scale(0.100000,-0.100000)"
fill="#000000" stroke="none">
<path d="M3101 4000 c-52 -22 -65 -70 -30 -114 19 -25 25 -26 117 -27 53 -1
108 -4 122 -8 16 -4 56 -47 112 -121 48 -63 88 -118 88 -122 0 -5 -199 -8
-442 -8 -476 -1 -484 -2 -552 -54 l-35 -26 -715 0 c-682 0 -718 -1 -766 -19
-106 -40 -179 -127 -201 -238 l-13 -63 -253 0 c-228 0 -259 -2 -310 -20 -106
-37 -176 -116 -208 -235 -17 -60 -17 -70 -4 -94 8 -14 27 -30 42 -36 46 -16
78 10 103 80 11 33 28 72 38 87 18 28 93 71 108 62 4 -3 8 -102 8 -219 l0
-215 -56 -72 c-65 -84 -136 -226 -159 -317 -34 -135 -34 -316 0 -451 24 -96
106 -255 176 -338 321 -387 912 -423 1276 -79 183 172 275 385 277 637 0 63
-3 127 -7 143 l-7 27 65 0 c52 0 65 -3 65 -16 0 -8 24 -39 53 -68 38 -39 64
-55 99 -64 65 -17 871 -17 936 0 35 9 61 25 99 64 29 29 53 60 53 68 0 13 13
16 65 16 l65 0 -7 -27 c-4 -16 -7 -80 -7 -143 2 -253 94 -465 277 -637 364
-344 955 -308 1276 79 69 82 152 241 176 335 103 411 -85 828 -460 1016 -327
163 -712 108 -985 -141 -81 -74 -147 -162 -196 -262 l-34 -70 -60 0 c-33 0
-60 2 -60 6 0 11 160 603 171 631 24 63 91 102 175 103 67 0 104 27 104 75 0
25 -7 39 -27 55 -25 19 -37 22 -104 18 -160 -9 -275 -108 -310 -265 l-12 -53
-669 0 c-629 0 -668 1 -668 18 -1 15 -25 89 -45 135 -7 16 8 17 234 17 276 0
317 8 389 81 50 50 71 93 84 177 6 36 17 77 26 90 34 53 28 52 619 52 681 0
618 12 912 -172 l125 -78 -161 0 c-147 0 -162 -2 -187 -21 -33 -26 -36 -77 -5
-105 20 -18 47 -19 493 -24 418 -4 474 -7 502 -22 39 -21 62 -56 88 -133 25
-70 57 -96 103 -80 15 6 34 22 42 36 31 56 -37 215 -119 281 -68 54 -131 68
-311 68 l-161 0 -249 155 c-136 86 -276 169 -311 184 -54 25 -162 54 -234 63
-14 2 -61 56 -141 163 -134 178 -151 197 -208 221 -47 20 -237 30 -274 14z
m-696 -672 c-9 -54 -27 -84 -68 -108 -31 -19 -56 -20 -714 -20 -768 0 -702 -8
-664 76 17 38 54 73 91 87 8 3 318 6 688 6 l674 1 -7 -42z m-770 -297 c46 -21
69 -44 84 -84 11 -28 171 -620 171 -631 0 -4 -27 -6 -61 -6 l-60 0 -26 58
c-63 139 -187 280 -325 369 -259 167 -584 184 -864 43 l-94 -47 0 158 0 159
568 0 c529 0 570 -2 607 -19z m-495 -332 c246 -66 450 -275 517 -529 26 -98
23 -264 -6 -365 -99 -351 -428 -575 -786 -534 -373 42 -646 348 -646 724 0
485 451 829 921 704z m2040 24 c0 -5 -31 -125 -69 -268 -60 -222 -74 -263 -96
-282 l-26 -23 -429 0 -429 0 -26 23 c-22 19 -36 60 -96 282 -38 143 -69 263
-69 268 0 4 279 7 620 7 341 0 620 -3 620 -7z m1170 -19 c143 -33 294 -129
391 -251 109 -138 160 -283 160 -458 0 -375 -274 -682 -646 -724 -358 -41
-687 183 -786 534 -32 112 -32 268 0 380 81 287 319 495 611 536 69 9 185 2
270 -17z"/>
<path d="M810 2451 c-88 -28 -137 -58 -198 -119 -122 -122 -166 -282 -127
-451 21 -86 59 -153 126 -220 258 -259 687 -147 795 208 18 61 18 190 -2 257
-25 87 -83 115 -137 66 -15 -13 -17 -26 -13 -62 19 -141 18 -194 -4 -253 -30
-79 -108 -157 -187 -187 -117 -44 -254 -15 -345 73 -63 61 -93 136 -93 232 0
96 30 171 93 232 69 66 124 88 222 87 47 -1 108 -4 136 -9 45 -6 54 -5 73 14
26 26 27 75 2 100 -49 49 -235 66 -341 32z"/>
<path d="M903 2055 c-29 -20 -37 -59 -19 -94 24 -46 67 -54 110 -20 72 57 -15
167 -91 114z"/>
<path d="M2265 2450 c-25 -28 -23 -76 4 -103 21 -22 27 -22 291 -22 264 0 270
0 291 22 27 27 29 75 4 103 -17 19 -30 20 -295 20 -265 0 -278 -1 -295 -20z"/>
<path d="M4040 2451 c-88 -28 -140 -60 -200 -120 -97 -98 -140 -201 -140 -338
0 -131 46 -240 139 -334 149 -149 379 -182 564 -81 64 35 154 125 189 189 55
101 71 232 42 349 -23 92 -69 125 -122 88 -35 -24 -41 -52 -25 -114 42 -157
-30 -317 -173 -390 -42 -21 -63 -25 -139 -25 -75 0 -98 4 -140 25 -204 100
-250 370 -89 527 88 85 214 115 334 79 51 -15 80 -8 104 26 21 30 20 50 -4 80
-42 54 -228 75 -340 39z"/>
<path d="M4125 2045 c-14 -13 -25 -36 -25 -50 0 -33 42 -75 75 -75 33 0 75 42
75 75 0 33 -42 75 -75 75 -14 0 -37 -11 -50 -25z"/>
</g>
</svg>
