<?xml version="1.0" standalone="no"?>
<!DOCTYPE svg PUBLIC "-//W3C//DTD SVG 20010904//EN"
 "http://www.w3.org/TR/2001/REC-SVG-20010904/DTD/svg10.dtd">
<svg version="1.0" xmlns="http://www.w3.org/2000/svg"
 width="512.000000pt" height="512.000000pt" viewBox="0 0 512.000000 512.000000"
 preserveAspectRatio="xMidYMid meet">

<g transform="translate(0.000000,512.000000) scale(0.100000,-0.100000)"
fill="#000000" stroke="none">
<path d="M2188 3614 c-30 -16 -58 -61 -58 -94 0 -37 30 -81 65 -96 23 -9 74
-14 157 -14 78 0 132 -5 148 -13 14 -7 80 -84 147 -172 104 -137 122 -165 122
-197 l1 -38 -997 -2 -998 -3 -47 -22 c-66 -30 -133 -96 -164 -160 -23 -46 -28
-72 -32 -159 -5 -103 -5 -105 -33 -120 -54 -28 -103 -79 -170 -181 -77 -118
-106 -185 -115 -276 -15 -147 60 -319 206 -468 116 -119 26 -110 1091 -107
l904 3 50 23 c28 13 67 40 89 60 46 44 158 213 191 288 l24 54 385 0 385 0 10
-37 c6 -21 18 -62 26 -92 8 -30 15 -60 15 -67 0 -10 -69 -14 -325 -16 l-325
-3 -27 -28 c-23 -23 -28 -36 -28 -77 0 -41 5 -54 28 -77 l27 -28 723 -3 c540
-2 729 1 751 10 18 7 103 105 245 282 119 149 225 282 234 296 61 88 -69 208
-154 141 -13 -10 -112 -129 -219 -265 l-195 -245 -254 2 -255 2 -23 90 c-12
50 -23 96 -23 103 0 8 23 12 83 12 100 0 190 21 272 61 49 24 98 66 236 204
185 186 212 224 225 321 7 57 -14 155 -43 202 -41 66 -105 110 -588 400 l-510
307 -296 0 c-258 -1 -299 -3 -321 -17 l-26 -17 -57 73 c-67 86 -131 137 -198
160 -65 22 -319 22 -359 0z m1672 -701 c330 -198 483 -295 494 -314 20 -33 20
-72 2 -107 -23 -44 -287 -297 -336 -323 -43 -23 -56 -24 -340 -30 -530 -12
-920 -11 -920 4 0 53 -160 300 -228 353 -87 66 -59 64 -964 64 l-818 0 0 65
c0 35 5 76 12 90 26 57 -23 55 1103 55 1138 0 1077 -3 1110 60 12 23 15 67 15
200 l0 170 196 0 196 0 478 -287z m-1461 -589 c12 -9 49 -57 81 -106 71 -108
89 -172 71 -244 -14 -55 -121 -225 -156 -248 -22 -14 -118 -16 -902 -16 -781
0 -881 2 -901 16 -26 18 -116 148 -143 207 -26 59 -24 130 6 196 27 58 109
178 135 198 11 10 220 12 900 13 800 0 888 -2 909 -16z"/>
<path d="M569 2101 c-52 -52 -35 -144 31 -171 90 -37 177 55 135 143 -30 64
-116 78 -166 28z"/>
<path d="M999 2102 c-25 -22 -32 -37 -33 -68 -1 -74 51 -121 124 -110 50 8 80
46 80 102 0 94 -101 139 -171 76z"/>
<path d="M1434 2115 c-54 -37 -55 -125 -3 -169 90 -76 209 28 154 134 -8 16
-24 34 -34 40 -28 15 -93 12 -117 -5z"/>
<path d="M1849 2101 c-52 -52 -35 -144 31 -171 90 -37 177 55 135 143 -30 64
-116 78 -166 28z"/>
<path d="M2279 2102 c-25 -22 -32 -37 -33 -68 -1 -74 51 -121 124 -110 50 8
80 46 80 102 0 94 -101 139 -171 76z"/>
</g>
</svg>
