<?xml version="1.0" standalone="no"?>
<!DOCTYPE svg PUBLIC "-//W3C//DTD SVG 20010904//EN"
 "http://www.w3.org/TR/2001/REC-SVG-20010904/DTD/svg10.dtd">
<svg version="1.0" xmlns="http://www.w3.org/2000/svg"
 width="512.000000pt" height="512.000000pt" viewBox="0 0 512.000000 512.000000"
 preserveAspectRatio="xMidYMid meet">

<g transform="translate(0.000000,512.000000) scale(0.100000,-0.100000)"
fill="#000000" stroke="none">
<path d="M115 3913 c-35 -9 -87 -54 -101 -89 -12 -29 -14 -181 -12 -957 l3
-922 23 -33 c32 -44 74 -64 148 -70 l62 -5 4 -106 c3 -92 6 -110 26 -139 38
-53 74 -66 195 -70 106 -4 107 -4 114 -31 22 -93 110 -199 204 -245 154 -75
323 -48 450 71 l48 45 38 -40 c50 -52 114 -88 193 -108 166 -43 360 50 440
209 16 33 30 68 30 79 0 17 34 18 939 18 l939 0 7 -32 c19 -86 102 -188 192
-236 154 -82 340 -54 463 68 60 61 96 131 111 218 l11 60 181 4 c200 3 225 10
271 71 20 28 21 40 24 399 3 441 6 428 -99 541 l-70 77 -99 296 -99 297 24 29
c14 16 25 36 25 43 0 30 -24 65 -53 75 -19 6 -164 10 -388 10 l-359 0 0 173
c0 159 -2 176 -22 217 -17 33 -35 51 -68 68 l-44 22 -1866 -1 c-1026 -1 -1874
-4 -1885 -6z m3730 -1033 l0 -885 -103 -5 c-112 -5 -132 -16 -132 -68 0 -65
40 -82 200 -82 l117 0 -32 -63 c-17 -34 -34 -72 -37 -85 l-6 -22 -932 2 -932
3 -18 52 c-10 29 -28 66 -40 83 l-21 30 740 2 740 3 22 22 c27 27 29 75 4 103
-18 20 -30 20 -1639 22 l-1621 3 -3 888 -2 887 1847 -2 1848 -3 0 -885z m769
332 c14 -42 26 -80 26 -85 0 -4 -88 -7 -195 -7 -215 0 -259 -9 -270 -52 -3
-13 -5 -128 -3 -255 3 -217 4 -233 24 -260 12 -15 36 -37 55 -48 32 -19 55
-20 361 -23 391 -4 358 9 358 -149 l0 -103 -57 0 c-65 0 -103 -25 -103 -69 1
-51 46 -81 121 -81 l39 0 0 -165 0 -165 -180 0 -179 0 -17 32 c-31 60 -121
144 -187 174 -59 28 -69 29 -234 32 l-173 4 0 649 0 649 294 0 294 0 26 -78z
m133 -397 c28 -82 52 -156 52 -162 1 -10 -53 -13 -239 -13 l-240 0 0 165 0
165 188 -2 187 -3 52 -150z m-4131 -1017 c-13 -24 -30 -62 -37 -85 l-12 -43
-89 0 -88 0 0 85 0 85 125 0 126 0 -25 -42z m439 23 c125 -57 179 -202 121
-326 -41 -89 -119 -138 -221 -138 -180 -1 -298 191 -216 352 24 46 93 108 136
120 52 16 137 12 180 -8z m671 -17 c30 -18 60 -48 79 -79 27 -44 30 -57 30
-129 0 -70 -4 -86 -26 -121 -55 -83 -118 -118 -214 -118 -134 -1 -239 104
-238 238 0 95 35 160 114 210 47 31 63 34 140 32 54 -2 75 -8 115 -33z m2608
22 c46 -19 104 -73 127 -118 60 -117 15 -259 -102 -323 -170 -92 -372 38 -357
230 3 34 13 75 21 92 23 44 75 93 122 114 48 22 142 25 189 5z"/>
<path d="M341 2284 c-24 -31 -26 -43 -9 -79 7 -16 24 -29 47 -36 24 -7 556 -9
1643 -7 l1607 3 22 22 c27 27 29 75 4 103 -18 20 -27 20 -1656 20 l-1638 0
-20 -26z"/>
<path d="M907 1653 c-46 -51 -14 -126 53 -126 62 0 93 75 50 121 -26 27 -80
29 -103 5z"/>
<path d="M1549 1652 c-49 -40 -15 -125 50 -125 42 0 71 28 71 70 0 64 -70 96
-121 55z"/>
<path d="M4192 1647 c-36 -38 -28 -88 18 -112 36 -19 83 -4 99 31 16 35 14 47
-10 78 -27 34 -77 36 -107 3z"/>
</g>
</svg>
